# This file uses centimeters as units for non-parametric coordinates.

mtllib staffofSunBase.mtl
g default
v -1.616227 0.176551 -1.558007
v 1.616227 0.176551 -1.558007
v 1.616227 0.176551 1.558007
v -1.616227 0.176551 1.558007
v -0.133230 0.579044 -0.105809
v 0.000000 0.579044 0.000000
v -0.096798 0.579044 -0.145634
v -0.050889 0.579044 -0.171203
v -0.156622 0.579044 -0.055627
v 0.000000 0.579044 -0.180014
v -0.164682 0.579044 0.000000
v 0.050889 0.579044 -0.171203
v -0.156622 0.579044 0.055627
v 0.096798 0.579044 -0.145634
v -0.133230 0.579044 0.105809
v 0.133230 0.579044 -0.105809
v -0.096798 0.579044 0.145634
v 0.156622 0.579044 -0.055627
v -0.050889 0.579044 0.171203
v 0.164682 0.579044 0.000000
v -0.000000 0.579044 0.180013
v 0.156622 0.579044 0.055627
v 0.050889 0.579044 0.171203
v 0.133230 0.579044 0.105809
v 0.096797 0.579044 0.145634
v -0.096798 1.921374 -0.145634
v -0.133230 1.921374 -0.105809
v -0.050889 1.921374 -0.171203
v -0.156622 1.921374 -0.055627
v 0.000000 1.921374 -0.180014
v -0.164682 1.921374 0.000000
v 0.050889 1.921374 -0.171203
v -0.156622 1.921374 0.055627
v 0.096798 1.921374 -0.145634
v -0.133230 1.921374 0.105809
v 0.133230 1.921374 -0.105809
v -0.096798 1.921374 0.145634
v 0.156622 1.921374 -0.055627
v -0.050889 1.921374 0.171203
v 0.164682 1.921374 0.000000
v -0.000000 1.921374 0.180013
v 0.156622 1.921374 0.055627
v 0.050889 1.921374 0.171203
v 0.133230 1.921374 0.105809
v 0.096797 1.921374 0.145634
v 0.845480 1.921374 0.815024
v -0.845480 1.921374 0.815024
v 0.845480 1.921374 -0.815024
v -0.845480 1.921374 -0.815024
vt 0.375000 0.750000
vt 0.625000 0.750000
vt 0.625000 1.000000
vt 0.375000 1.000000
vt 0.373591 0.064409
vt 0.500000 0.150000
vt 0.408159 0.029841
vt 0.451716 0.007647
vt 0.351397 0.107966
vt 0.500000 -0.000000
vt 0.343750 0.156250
vt 0.548284 0.007647
vt 0.351397 0.204534
vt 0.591842 0.029841
vt 0.373591 0.248091
vt 0.626409 0.064408
vt 0.408159 0.282659
vt 0.648603 0.107966
vt 0.451716 0.304853
vt 0.656250 0.156250
vt 0.500000 0.312500
vt 0.648603 0.204534
vt 0.548284 0.304853
vt 0.626409 0.248091
vt 0.591841 0.282659
vt 0.450000 0.365674
vt 0.462500 0.365674
vt 0.462500 0.312500
vt 0.450000 0.312500
vt 0.437500 0.365674
vt 0.437500 0.312500
vt 0.475000 0.365674
vt 0.475000 0.312500
vt 0.425000 0.365674
vt 0.425000 0.312500
vt 0.487500 0.365674
vt 0.487500 0.312500
vt 0.412500 0.365674
vt 0.412500 0.312500
vt 0.500000 0.365674
vt 0.500000 0.312500
vt 0.400000 0.365674
vt 0.400000 0.312500
vt 0.512500 0.365674
vt 0.512500 0.312500
vt 0.387500 0.365674
vt 0.387500 0.312500
vt 0.525000 0.365674
vt 0.525000 0.312500
vt 0.375000 0.365674
vt 0.375000 0.312500
vt 0.537500 0.365674
vt 0.537500 0.312500
vt 0.612500 0.365674
vt 0.625000 0.365674
vt 0.625000 0.312500
vt 0.612500 0.312500
vt 0.550000 0.365674
vt 0.550000 0.312500
vt 0.600000 0.365674
vt 0.600000 0.312500
vt 0.562500 0.365674
vt 0.562500 0.312500
vt 0.587500 0.365674
vt 0.587500 0.312500
vt 0.575000 0.365674
vt 0.575000 0.312500
vt 0.375000 0.000000
vt 0.625000 0.000000
vt 0.625000 0.250000
vt 0.375000 0.250000
vt 0.875000 0.000000
vt 0.875000 0.250000
vt 0.500000 0.347391
vt 0.492476 0.348743
vt 0.485689 0.352664
vt 0.480303 0.358772
vt 0.476844 0.366468
vt 0.475653 0.375000
vt 0.476844 0.383532
vt 0.480303 0.391228
vt 0.485689 0.397336
vt 0.492476 0.401257
vt 0.500000 0.402609
vt 0.625000 0.500000
vt 0.375000 0.500000
vt 0.507524 0.401257
vt 0.514311 0.397336
vt 0.519697 0.391228
vt 0.523156 0.383532
vt 0.524347 0.375000
vt 0.523156 0.366468
vt 0.519697 0.358772
vt 0.514311 0.352664
vt 0.507524 0.348743
vt 0.125000 0.000000
vt 0.125000 0.250000
vn 0.000000 -1.000000 0.000000
vn 0.000000 -1.000000 0.000000
vn 0.000000 -1.000000 0.000000
vn 0.000000 -1.000000 0.000000
vn 0.000000 1.000000 0.000000
vn 0.000000 1.000000 0.000000
vn 0.000000 1.000000 0.000000
vn 0.000000 1.000000 0.000000
vn 0.000000 1.000000 -0.000000
vn 0.000000 1.000000 0.000000
vn 0.000000 1.000000 0.000000
vn 0.000000 1.000000 0.000000
vn 0.000000 1.000000 0.000000
vn 0.000000 1.000000 0.000000
vn 0.000000 1.000000 0.000000
vn 0.000000 1.000000 -0.000000
vn 0.000000 1.000000 -0.000000
vn 0.000000 1.000000 -0.000000
vn 0.000000 1.000000 -0.000000
vn 0.000000 1.000000 -0.000000
vn 0.000000 1.000000 -0.000000
vn 0.000000 1.000000 0.000000
vn 0.000000 1.000000 0.000000
vn 0.000000 1.000000 0.000000
vn 0.000000 1.000000 -0.000000
vn 0.621914 0.000000 0.783086
vn 0.832820 0.000000 0.553544
vn 0.832820 0.000000 0.553544
vn 0.621914 0.000000 0.783086
vn 0.334687 0.000000 0.942330
vn 0.334687 0.000000 0.942330
vn 0.958550 0.000000 0.284925
vn 0.958550 0.000000 0.284925
vn 0.000000 0.000000 1.000000
vn 0.000000 0.000000 1.000000
vn 1.000000 0.000000 0.000000
vn 1.000000 0.000000 0.000000
vn -0.334686 0.000000 0.942330
vn -0.334686 0.000000 0.942330
vn 0.958550 0.000000 -0.284925
vn 0.958550 0.000000 -0.284925
vn -0.621913 0.000000 0.783086
vn -0.621913 0.000000 0.783086
vn 0.832820 0.000000 -0.553544
vn 0.832820 0.000000 -0.553544
vn -0.832820 0.000000 0.553544
vn -0.832820 0.000000 0.553544
vn 0.621914 0.000000 -0.783086
vn 0.621914 0.000000 -0.783086
vn -0.958550 0.000000 0.284924
vn -0.958550 0.000000 0.284924
vn 0.334686 0.000000 -0.942330
vn 0.334686 0.000000 -0.942330
vn -1.000000 0.000000 -0.000001
vn -1.000000 0.000000 -0.000001
vn -0.000000 0.000000 -1.000000
vn -0.000000 0.000000 -1.000000
vn -0.958550 0.000000 -0.284925
vn -0.958550 0.000000 -0.284925
vn -0.334687 0.000000 -0.942329
vn -0.334687 0.000000 -0.942329
vn -0.832820 0.000000 -0.553544
vn -0.832820 0.000000 -0.553544
vn -0.621914 0.000000 -0.783086
vn -0.621914 0.000000 -0.783086
vn 0.000000 0.391781 0.920059
vn 0.000000 0.391781 0.920059
vn 0.000000 0.391781 0.920059
vn 0.000000 0.391781 0.920059
vn 0.914729 0.404067 0.000000
vn 0.914729 0.404067 0.000000
vn 0.914729 0.404067 0.000000
vn 0.914729 0.404067 0.000000
vn 0.000000 1.000000 0.000000
vn 0.000000 1.000000 0.000000
vn 0.000000 1.000000 0.000000
vn 0.000000 1.000000 0.000000
vn 0.000000 1.000000 0.000000
vn 0.000000 1.000000 0.000000
vn 0.000000 1.000000 0.000000
vn 0.000000 1.000000 0.000000
vn 0.000000 1.000000 0.000000
vn 0.000000 1.000000 0.000000
vn 0.000000 1.000000 0.000000
vn 0.000000 1.000000 0.000000
vn 0.000000 1.000000 0.000000
vn 0.000000 1.000000 0.000000
vn 0.000000 1.000000 0.000000
vn 0.000000 1.000000 0.000000
vn 0.000000 1.000000 0.000000
vn 0.000000 1.000000 0.000000
vn 0.000000 1.000000 0.000000
vn 0.000000 1.000000 0.000000
vn 0.000000 1.000000 0.000000
vn 0.000000 1.000000 0.000000
vn 0.000000 1.000000 0.000000
vn 0.000000 1.000000 0.000000
vn 0.000000 0.391781 -0.920059
vn 0.000000 0.391781 -0.920059
vn 0.000000 0.391781 -0.920059
vn 0.000000 0.391781 -0.920059
vn -0.914729 0.404067 0.000000
vn -0.914729 0.404067 0.000000
vn -0.914729 0.404067 0.000000
vn -0.914729 0.404067 0.000000
s off
g pCube9
usemtl initialShadingGroup
f 1/1/1 2/2/2 3/3/3 4/4/4
s 1
f 5/5/5 6/6/6 7/7/7
f 7/7/7 6/6/6 8/8/8
f 9/9/9 6/6/6 5/5/5
f 8/8/8 6/6/6 10/10/10
f 11/11/11 6/6/6 9/9/9
f 10/10/10 6/6/6 12/12/12
f 13/13/13 6/6/6 11/11/11
f 12/12/12 6/6/6 14/14/14
f 15/15/15 6/6/6 13/13/13
f 14/14/14 6/6/6 16/16/16
f 17/17/17 6/6/6 15/15/15
f 16/16/16 6/6/6 18/18/18
f 19/19/19 6/6/6 17/17/17
f 18/18/18 6/6/6 20/20/20
f 21/21/21 6/6/6 19/19/19
f 20/20/20 6/6/6 22/22/22
f 23/23/23 6/6/6 21/21/21
f 22/22/22 6/6/6 24/24/24
f 25/25/25 6/6/6 23/23/23
f 24/24/24 6/6/6 25/25/25
s 2
f 26/26/26 27/27/27 5/28/28 7/29/29
f 28/30/30 26/26/26 7/29/29 8/31/31
f 27/27/27 29/32/32 9/33/33 5/28/28
f 30/34/34 28/30/30 8/31/31 10/35/35
f 29/32/32 31/36/36 11/37/37 9/33/33
f 32/38/38 30/34/34 10/35/35 12/39/39
f 31/36/36 33/40/40 13/41/41 11/37/37
f 34/42/42 32/38/38 12/39/39 14/43/43
f 33/40/40 35/44/44 15/45/45 13/41/41
f 36/46/46 34/42/42 14/43/43 16/47/47
f 35/44/44 37/48/48 17/49/49 15/45/45
f 38/50/50 36/46/46 16/47/47 18/51/51
f 37/48/48 39/52/52 19/53/53 17/49/49
f 40/54/54 38/55/50 18/56/51 20/57/55
f 39/52/52 41/58/56 21/59/57 19/53/53
f 42/60/58 40/54/54 20/57/55 22/61/59
f 41/58/56 43/62/60 23/63/61 21/59/57
f 44/64/62 42/60/58 22/61/59 24/65/63
f 43/62/60 45/66/64 25/67/65 23/63/61
f 45/66/64 44/64/62 24/65/63 25/67/65
s off
f 4/68/66 3/69/67 46/70/68 47/71/69
f 3/69/70 2/72/71 48/73/72 46/70/73
s 3
f 47/71/74 41/74/75 39/75/76 37/76/77 35/77/78 33/78/79 31/79/80 29/80/81 27/81/82 26/82/83 28/83/84 30/84/85 48/85/86 49/86/87
f 47/71/74 46/70/88 48/85/86 30/84/85 32/87/89 34/88/90 36/89/91 38/90/92 40/91/93 42/92/94 44/93/95 45/94/96 43/95/97 41/74/75
s off
f 49/86/98 48/85/99 2/2/100 1/1/101
f 1/96/102 4/68/103 47/71/104 49/97/105
